<svg width="1075" height="791" viewBox="0 0 1075 791" fill="none" xmlns="http://www.w3.org/2000/svg">
	<path fill-rule="evenodd" clip-rule="evenodd" d="M687.018 4.63522C689.652 5.6217 691.748 7.67188 692.794 10.2831L904.794 539.783C906.764 544.703 904.553 550.306 899.754 552.555L767.02 614.766L816.673 653.625C820.794 656.85 821.732 662.706 818.824 667.057L753.324 765.057C751.8 767.338 749.405 768.892 746.701 769.356C743.997 769.82 741.222 769.153 739.024 767.51L646.024 698.01C641.778 694.837 640.746 688.902 643.671 684.482L655.088 667.226L404.754 784.555C402.288 785.71 399.458 785.811 396.917 784.832C394.375 783.854 392.343 781.881 391.289 779.37L178.289 271.87C176.266 267.049 178.298 261.483 182.952 259.099L678.952 5.09922C681.456 3.81717 684.383 3.64873 687.018 4.63522ZM676.274 635.209L710.171 583.982C711.71 581.655 714.152 580.077 716.906 579.629C719.66 579.182 722.476 579.905 724.673 581.625L749.368 600.951L866.539 546.034L395.091 418.716L409.853 760.077L676.274 635.209ZM388.105 720.104L374.733 410.871L210.087 295.953L388.105 720.104ZM206.873 269.32L382.378 391.817L648.753 43.0339L206.873 269.32ZM680.771 34.0623L401.5 399.73L878.783 528.624L680.771 34.0623ZM716.661 610.417L671.611 678.499L743.758 673.08L716.661 610.417ZM767.399 689.245L762.979 714.62L784.425 682.533L767.399 689.245ZM790.586 658.606L763.847 669.147L743.279 621.582L790.586 658.606ZM737.953 741.742L746.455 692.934L679.383 697.972L737.953 741.742Z" fill="currentColor" />
	<path fill-rule="evenodd" clip-rule="evenodd" d="M235.353 378.072C235.355 378.072 235.357 378.072 234.51 383C233.664 387.928 233.664 387.928 233.663 387.928L233.631 387.923L233.521 387.904C233.422 387.887 233.272 387.862 233.074 387.829C232.677 387.763 232.085 387.665 231.31 387.539C229.76 387.289 227.481 386.928 224.576 386.491C218.764 385.617 210.453 384.438 200.472 383.221C180.496 380.785 153.906 378.205 127.326 377.603C100.649 376.998 74.3974 378.399 54.9042 383.721C45.1535 386.384 37.4971 389.923 32.3269 394.344C27.306 398.638 24.6234 403.741 24.5093 410.09C24.5031 410.435 24.4612 410.778 24.3844 411.114C22.8648 417.762 25.6225 429.971 36.9015 446.853C47.9861 463.444 66.7166 483.646 95.17 505.867C113.127 519.891 134.911 534.684 161.009 549.85C163.83 548.547 166.679 547.276 169.543 546.036C197.285 534.032 227.287 524.679 250.291 518.336C261.807 515.161 271.599 512.732 278.518 511.095C281.978 510.277 284.721 509.656 286.604 509.239C287.545 509.031 288.271 508.873 288.764 508.767C289.011 508.715 289.199 508.674 289.327 508.647L289.512 508.609L289.522 508.606C289.525 508.606 289.527 508.605 290.548 513.5C291.569 518.395 291.569 518.395 291.567 518.395L291.529 518.403L291.397 518.431C291.279 518.456 291.101 518.494 290.864 518.545C290.391 518.646 289.686 518.799 288.766 519.003C286.927 519.41 284.23 520.02 280.82 520.827C273.999 522.44 264.327 524.839 252.949 527.976C230.165 534.259 200.657 543.468 173.515 555.214C172.927 555.468 172.342 555.723 171.758 555.979C227.205 587.011 300.762 619.37 396.522 649.734C451.248 667.087 500.571 681.085 544.917 692.224C556.327 691.643 567.109 691.036 577.115 690.431C599.691 689.066 618.31 687.712 631.282 686.701C637.767 686.195 642.84 685.774 646.29 685.481C648.014 685.334 649.333 685.219 650.219 685.14L650.683 685.099C650.904 685.079 651.084 685.063 651.221 685.051L651.55 685.021C651.553 685.021 651.555 685.021 652.01 690C652.466 694.979 652.464 694.979 652.459 694.98L652.117 695.011C651.889 695.031 651.548 695.062 651.1 695.101C650.203 695.181 648.874 695.297 647.138 695.445C643.667 695.74 638.57 696.163 632.059 696.67C619.204 697.673 600.836 699.009 578.582 700.36C650.361 716.997 707.77 725.581 752.955 728.633C792.125 731.279 821.977 729.758 843.974 725.79C866.078 721.802 879.78 715.427 887.166 708.783C892.016 704.42 894.294 699.715 894.883 694.791C895.487 689.742 894.361 684.023 891.597 677.72C887.58 668.557 880.406 658.83 871.643 649.262C864.767 651.389 858.254 653.347 852.233 655.117C840.146 658.672 830.032 661.477 822.935 663.394C819.387 664.353 816.592 665.09 814.682 665.588C813.727 665.837 812.993 666.026 812.496 666.154C812.248 666.217 812.059 666.266 811.931 666.298L811.786 666.335L811.738 666.347C811.735 666.348 811.734 666.348 810.51 661.5C809.286 656.652 809.287 656.652 809.288 656.652L809.296 656.65L809.329 656.641L810.012 656.467C810.497 656.343 811.218 656.157 812.16 655.911C814.043 655.42 816.809 654.691 820.327 653.74C827.364 651.839 837.406 649.054 849.412 645.523C853.965 644.184 858.799 642.738 863.858 641.193C862.868 640.216 861.866 639.242 860.854 638.273C847.419 625.414 832.536 613.769 820.97 605.316C815.196 601.096 810.269 597.687 806.792 595.336C805.053 594.161 803.678 593.251 802.741 592.637C802.273 592.33 801.914 592.098 801.675 591.943C801.555 591.866 801.465 591.808 801.406 591.77L801.326 591.719L801.323 591.717C801.323 591.717 801.323 591.717 804.01 587.5C806.697 583.284 806.699 583.284 806.7 583.286L806.706 583.29L806.728 583.303L806.805 583.353C806.873 583.396 806.972 583.46 807.1 583.543C807.357 583.709 807.734 583.953 808.221 584.272C809.195 584.91 810.611 585.847 812.392 587.051C815.954 589.459 820.982 592.939 826.87 597.242C838.628 605.835 853.895 617.77 867.768 631.049C870.091 633.272 872.387 635.544 874.63 637.855C893.78 631.836 915.31 624.606 936.609 616.514C968.014 604.581 998.632 590.876 1020.38 576.537C1031.28 569.354 1039.64 562.208 1044.8 555.293C1049.93 548.423 1051.55 542.307 1050.16 536.703C1046.95 523.759 1034.78 512.556 1016.43 503.092C998.294 493.738 975.261 486.678 952.402 481.436C929.595 476.206 907.216 472.84 890.517 470.783C882.174 469.755 875.264 469.055 870.446 468.613C868.037 468.392 866.153 468.235 864.874 468.134C864.516 468.106 864.205 468.082 863.944 468.062C863.739 468.046 863.565 468.033 863.422 468.023L863.151 468.003L863.056 467.997L862.946 467.989L862.941 467.989C862.941 467.989 862.941 467.989 863.127 465.256L863.28 463C863.619 458.012 863.62 458.012 863.622 458.012L863.657 458.014L863.76 458.021C863.849 458.028 863.981 458.037 864.153 458.05C864.497 458.075 865.004 458.113 865.662 458.165C866.98 458.269 868.907 458.43 871.36 458.655C876.266 459.105 883.28 459.815 891.74 460.858C908.647 462.941 931.387 466.357 954.638 471.689C977.837 477.009 1001.8 484.294 1021.02 494.205C1040.02 504.006 1055.57 516.991 1059.86 534.297C1062.22 543.818 1059.01 552.984 1052.82 561.276C1046.66 569.523 1037.21 577.42 1025.89 584.885C1003.2 599.842 971.756 613.857 940.161 625.861C920.297 633.409 900.261 640.204 882.12 645.975C890.001 655 896.686 664.421 900.756 673.704C903.97 681.037 905.695 688.599 904.812 695.978C903.915 703.483 900.371 710.354 893.854 716.217C884.488 724.643 868.685 731.493 845.75 735.631C822.708 739.787 791.99 741.292 752.281 738.61C699.817 735.066 631.427 724.197 543.932 702.287C504.032 704.3 456.594 705.981 407.775 706.125C344.307 706.313 278.347 703.906 223.534 696.217C196.133 692.373 171.365 687.189 151.024 680.283C130.793 673.415 114.382 664.661 104.278 653.327C94.4622 642.318 89.6859 631.282 89.6075 620.34C89.5294 609.427 94.1316 599.432 101.442 590.491C112.441 577.039 130.185 565.22 150.177 555.086C126.258 540.892 105.996 527.011 89.0149 513.749C59.9824 491.075 40.4217 470.123 28.5866 452.409C17.1294 435.26 12.3081 420.219 14.5239 409.402C14.8346 400.056 19.0562 392.535 25.8277 386.744C32.5719 380.977 41.8108 376.93 52.2702 374.074C73.1969 368.361 100.624 366.994 127.553 367.605C154.581 368.218 181.526 370.836 201.683 373.295C211.77 374.525 220.174 375.717 226.063 376.602C229.007 377.045 231.323 377.411 232.907 377.668C233.699 377.796 234.307 377.896 234.72 377.965C234.926 378 235.084 378.026 235.19 378.044L235.353 378.072ZM160.542 561.124C138.663 571.638 119.943 583.661 109.184 596.821C102.85 604.568 99.5507 612.37 99.6073 620.269C99.6636 628.14 103.058 636.932 111.742 646.673C120.138 656.089 134.602 664.148 154.239 670.814C173.764 677.443 197.856 682.517 224.923 686.314C279.048 693.906 344.464 696.312 407.745 696.125C443.76 696.018 479.033 695.073 511.069 693.773C474.936 684.111 435.81 672.683 393.499 659.266C293.591 627.587 217.429 593.658 160.542 561.124Z" fill="currentColor" />
</svg>
